PathFileType	4	(X/Y/Z)	C:/Users/opensim2020/Desktop/walking_exp_matlab/subject06_walking15_straight_02.trc	
DataRate	CameraRate	NumFrames	NumMarkers	Units	OrigDataRate	OrigDataStartFrame	OrigNumFrames	
100.00	100.00	7	47	mm	100.00	1546	218	
Frame#	Time	LFHD			RFHD			LBHD			RBHD			C7			T10			CLAV			STRN			RBAK			LSHO			LUPA			LELB			LFRM			LWRA			LWRB			LFIN			RSHO			RUPA			RELB			RFRM			RWRA			RWRB			RFIN			LASI			RASI			LPSI			RPSI			LTHI			LKNE			LTIB			LANK			LHEE			LTOE			RTHI			RKNE			RTIB			RANK			RHEE			RTOE			*39			*40			*41			*42			*43			*44			*45			*46			
		X1	Y1	Z1	X2	Y2	Z2	X3	Y3	Z3	X4	Y4	Z4	X5	Y5	Z5	X6	Y6	Z6	X7	Y7	Z7	X8	Y8	Z8	X9	Y9	Z9	X10	Y10	Z10	X11	Y11	Z11	X12	Y12	Z12	X13	Y13	Z13	X14	Y14	Z14	X15	Y15	Z15	X16	Y16	Z16	X17	Y17	Z17	X18	Y18	Z18	X19	Y19	Z19	X20	Y20	Z20	X21	Y21	Z21	X22	Y22	Z22	X23	Y23	Z23	X24	Y24	Z24	X25	Y25	Z25	X26	Y26	Z26	X27	Y27	Z27	X28	Y28	Z28	X29	Y29	Z29	X30	Y30	Z30	X31	Y31	Z31	X32	Y32	Z32	X33	Y33	Z33	X34	Y34	Z34	X35	Y35	Z35	X36	Y36	Z36	X37	Y37	Z37	X38	Y38	Z38	X39	Y39	Z39	X40	Y40	Z40	X41	Y41	Z41	X42	Y42	Z42	X43	Y43	Z43	X44	Y44	Z44	X45	Y45	Z45	X46	Y46	Z46	X47	Y47	Z47	

55	0.540	-916.86548	796.31000	1652.89368	-1048.55066	783.42535	1650.71484	-933.37231	929.35248	1599.80542	-1061.93164	914.34705	1602.71021	-997.16162	924.74139	1444.48694	-1009.72559	958.23303	1115.94995	-991.67096	813.47858	1369.22839	-992.60571	773.33905	1195.34363	-1086.14539	991.65759	1277.19153	-834.12683	883.95349	1396.51965	-766.83752	931.34564	1200.94604	-759.83246	961.52106	1092.60754	-739.41754	972.97827	942.25586	-780.04541	939.43555	816.88043	-743.95825	1001.86438	826.69617	-743.98035	980.26581	737.32318	-1153.71558	851.21533	1406.27283	-1255.58240	861.69537	1212.31628	-1273.94910	828.60089	1097.24780	-1282.98352	759.51331	1000.73596	-1233.45044	641.38739	917.32031	-1276.87610	682.85535	887.71008	-1272.27979	611.17090	845.59473	-904.66370	776.18073	958.20593	-1123.27344	789.73682	959.67279	-922.00177	936.08099	981.91528	-1090.77454	938.99237	987.65204	-837.77570	777.86053	648.01270	-865.95013	719.52466	497.58331	-873.77063	715.91748	243.00421	-911.56049	682.53131	72.52473	-963.48950	711.50964	53.53986	-894.71454	537.54242	60.96573	-1162.91687	878.33173	624.77185	-1137.72852	895.51508	499.63580	-1128.53760	998.92792	250.68285	-1078.86047	1056.71021	73.94408	-1035.59314	1101.89355	54.52822	-1073.97839	907.19299	29.89649	-982.94397	890.00806	1696.23975																					 
56	0.550	-916.91260	786.70074	1651.38159	-1048.51917	773.72125	1649.23511	-933.46667	919.60840	1598.21545	-1062.01025	904.68341	1601.25806	-997.22760	915.16376	1443.02625	-1009.37897	948.79071	1114.48547	-991.77423	803.77228	1367.79614	-992.89319	763.72150	1193.99048	-1086.24866	982.22729	1275.76013	-834.17432	874.26099	1395.01770	-767.24481	923.11755	1199.96716	-760.46075	954.40778	1091.82385	-739.92181	967.44141	941.66302	-781.03711	935.63965	815.97729	-744.76288	997.26727	826.29602	-745.11572	976.71173	736.68951	-1153.71497	841.78973	1404.91760	-1255.89319	850.96796	1211.18066	-1274.27893	816.88800	1096.38477	-1282.93726	746.82965	1000.68170	-1232.72229	628.01605	918.68433	-1276.21521	668.94501	888.52460	-1271.47363	596.69489	847.38574	-905.12604	765.95337	956.88470	-1123.81177	780.36182	958.48627	-921.73737	926.05542	980.28607	-1090.51123	930.01422	986.15753	-837.65088	770.68213	645.71625	-866.49158	712.61029	494.84570	-874.44598	697.52765	240.77640	-911.85950	654.43005	72.25509	-963.82825	682.08282	51.86205	-894.79486	508.55499	67.00161	-1162.95862	871.03357	623.99384	-1138.17236	889.68890	499.09296	-1128.54590	996.37659	251.13669	-1078.78198	1056.20813	75.18445	-1035.34595	1101.38391	56.20271	-1074.09265	907.20404	29.88678	-982.89746	880.26508	1694.76428																					 
57	0.560	-916.80170	777.00000	1649.86194	-1048.45520	763.91199	1647.77441	-933.48413	909.92865	1596.78284	-1062.28784	895.14636	1599.89148	-997.23425	905.49585	1441.58044	-1008.90479	939.26410	1112.97949	-991.90338	794.05066	1366.41162	-993.15356	754.14343	1192.59082	-1086.23669	972.73010	1274.32446	-834.20612	864.46124	1393.47156	-767.59058	914.57648	1198.84558	-761.05573	946.98901	1090.95154	-740.92871	961.33234	940.78192	-781.35706	930.13910	814.92438	-745.70380	992.30383	825.73901	-746.22491	972.76959	735.92126	-1153.74011	832.34479	1403.50671	-1256.16467	840.34442	1209.92053	-1274.53235	805.28418	1095.37744	-1282.72534	734.25684	1000.38098	-1231.79773	614.87366	919.72412	-1275.61987	655.19153	889.06360	-1270.24646	582.42682	848.60773	-905.51404	755.57623	955.48224	-1124.36511	770.84125	957.49280	-921.32324	915.63263	978.53992	-1090.14307	920.79993	984.60522	-837.38507	762.66132	643.11420	-866.53815	705.64789	491.79010	-875.40771	679.96899	238.76396	-912.70026	627.99701	72.70940	-964.91589	654.43073	51.31160	-895.02985	481.58170	73.90044	-1163.29199	863.54291	623.31116	-1138.64893	883.39886	498.41254	-1128.79236	993.80884	251.75552	-1078.85986	1055.77795	76.51752	-1035.19800	1100.93408	57.96873	-1074.10181	907.06702	29.77489	-982.91620	870.54950	1693.25671																					 
58	0.570	-916.71417	767.22601	1648.36377	-1048.34680	754.12347	1646.34900	-933.43365	900.14612	1595.34070	-1061.99353	885.09198	1598.42273	-997.20148	895.83118	1440.21997	-1008.35754	929.62347	1111.51746	-991.91583	784.30750	1365.02185	-993.32050	744.41522	1191.26428	-1086.18420	963.24432	1272.92847	-834.08649	854.52283	1391.84778	-767.93475	905.76764	1197.61792	-761.60602	939.10327	1089.97852	-741.25861	955.03522	940.02686	-781.90588	924.82635	813.90399	-746.60242	986.87787	825.17279	-747.20581	968.31427	735.13086	-1153.73560	822.78516	1402.09924	-1256.33350	829.78113	1208.56763	-1274.71033	793.76434	1094.26160	-1282.39807	721.95776	999.92645	-1230.80640	602.20758	920.42889	-1274.81018	641.92096	889.36865	-1269.18713	569.02722	849.81262	-905.80664	745.17261	954.09393	-1124.91223	761.27057	956.55920	-920.91504	905.52032	976.99658	-1089.60498	911.56360	983.02429	-836.11700	754.49414	640.77563	-866.36896	698.54340	488.56427	-876.56500	663.12860	237.29445	-913.96021	603.58612	73.79770	-966.73956	628.84247	51.79746	-895.61023	456.84674	80.74152	-1163.61047	855.94977	622.57343	-1139.22021	877.03552	497.79327	-1129.16821	990.94849	252.38513	-1079.12061	1055.13062	77.81771	-1035.39514	1100.42151	59.94506	-1074.19043	907.03064	29.70897	-982.84283	860.74310	1691.84546																					 
59	0.580	-916.61853	757.38690	1646.94177	-1048.28601	744.32025	1644.97302	-933.32819	890.34540	1593.96375	-1061.88684	875.24725	1597.08594	-997.02393	886.05157	1438.88904	-1007.81195	919.88861	1110.10767	-991.91754	774.63300	1363.66248	-993.53363	734.68243	1190.02087	-1086.05359	953.68652	1271.62805	-833.90491	844.48517	1390.28088	-768.11719	896.51569	1196.28650	-762.00201	930.83716	1088.92322	-741.48010	948.51758	939.19061	-782.47253	918.80817	812.62262	-747.44250	980.98346	824.52814	-748.14374	963.28979	734.33154	-1153.73633	813.27362	1400.77612	-1256.37390	819.22876	1207.17456	-1274.76758	782.41022	1093.14307	-1281.97607	709.83356	999.34174	-1229.66956	589.77228	920.85474	-1273.81445	629.10370	889.41888	-1267.85706	555.80188	850.54950	-906.08557	734.80353	952.78003	-1125.43420	751.65143	955.54059	-920.15167	895.16986	975.45251	-1088.92139	902.08661	981.50403	-835.16132	745.97150	638.76123	-866.35284	691.35443	485.55951	-877.71887	647.11932	236.35777	-915.03033	581.40094	75.30663	-968.23077	605.39667	52.82511	-896.53894	434.16827	86.85213	-1164.01978	848.26416	621.88184	-1139.84912	870.27191	497.13120	-1129.75916	987.87695	253.12416	-1079.71497	1054.42725	79.37136	-1035.99304	1099.91272	62.12875	-1074.32678	907.05096	29.67697	-982.69702	850.92474	1690.44275																					 
60	0.590	-916.48523	747.47180	1645.65613	-1048.11792	734.47113	1643.66516	-933.19910	880.42023	1592.62695	-1061.78003	865.48932	1595.81799	-996.79712	876.34534	1437.61096	-1007.23022	910.06036	1108.68958	-991.88770	764.76135	1362.46826	-993.68536	724.83618	1188.84290	-1085.88599	944.08978	1270.38611	-833.62683	834.26624	1388.72900	-768.30487	886.99823	1194.94397	-762.40149	922.05017	1087.82947	-742.35992	940.49786	938.11133	-783.08392	912.26904	811.44171	-748.35767	974.25983	823.76141	-748.94238	957.54156	733.48712	-1153.67688	803.51471	1399.44714	-1256.29468	808.67963	1205.79041	-1274.60559	771.07648	1091.95740	-1281.44128	697.97327	998.61804	-1228.48010	577.74927	920.88861	-1272.93823	616.55505	889.30548	-1266.38538	543.05878	850.76801	-906.21356	724.38831	951.68378	-1125.69885	741.85144	954.49335	-919.22888	884.65546	974.09882	-1088.04492	892.46777	980.01526	-834.02295	736.72272	636.83301	-866.60571	683.79138	482.96524	-878.48022	632.21094	235.92213	-915.78162	561.25238	77.02330	-969.01227	584.69116	54.12004	-898.03040	413.57654	91.78834	-1164.29590	840.46625	621.28546	-1140.35327	863.23621	496.42935	-1130.33765	984.37292	254.03265	-1080.44287	1053.52039	81.13728	-1036.93152	1099.31311	64.66161	-1074.41248	906.95251	29.57134	-982.53156	841.03571	1689.14624																					 
61	0.600	-916.24921	737.59332	1644.42737	-1047.95679	724.57959	1642.48694	-932.89532	870.46979	1591.42004	-1061.79211	855.89935	1594.71313	-996.59619	866.59229	1436.46558	-1006.65674	900.04852	1107.36279	-991.82593	754.79907	1361.33545	-993.82019	714.87451	1187.79321	-1085.66492	934.46338	1269.28064	-833.41095	824.05688	1387.27112	-768.48987	877.47137	1193.67896	-762.65759	912.80341	1086.69873	-742.82465	932.39215	937.06506	-784.08130	905.54132	810.38507	-748.82690	967.16473	823.06915	-749.67157	951.19470	732.65308	-1153.63733	793.77057	1398.22998	-1256.07837	798.18823	1204.50122	-1274.28064	759.84479	1090.86694	-1280.73328	686.33801	997.83484	-1227.25317	566.03558	920.64368	-1271.85132	604.44623	888.81689	-1264.94849	530.83606	850.68268	-906.22925	713.97400	950.76904	-1125.82104	732.04956	953.41101	-918.28333	874.19373	973.05664	-1087.05200	882.69891	978.78082	-833.12701	726.96283	635.09521	-867.09894	675.47852	481.01337	-878.99487	618.51837	235.82135	-916.21356	543.35736	78.48264	-968.84137	566.53467	54.90851	-900.30829	395.31866	95.53450	-1164.45007	832.25970	620.81073	-1140.83020	855.77557	495.91589	-1131.00159	980.54486	255.14885	-1081.52271	1052.44885	83.17897	-1038.04590	1098.59985	67.55541	-1074.67200	907.01868	29.59366	-982.30817	831.12866	1687.94067																					 
